<svg width="30" height="30" viewBox="0 0 30 30" fill="none" xmlns="http://www.w3.org/2000/svg">
<path fill-rule="evenodd" clip-rule="evenodd" d="M9.02457 7.5C7.94457 7.5 6.93207 7.9175 6.17457 8.67625C4.60207 10.2512 4.60207 12.815 6.17582 14.3925L14.9996 23.2313L23.8246 14.3925C25.3983 12.815 25.3983 10.2512 23.8246 8.67625C22.3096 7.1575 19.6396 7.16 18.1246 8.67625L15.8846 10.92C15.4146 11.3913 14.5846 11.3913 14.1146 10.92L11.8746 8.675C11.1171 7.9175 10.1058 7.5 9.02457 7.5ZM14.9996 26.25C14.6683 26.25 14.3496 26.1187 14.1158 25.8825L4.40582 16.1575C1.86082 13.6075 1.86082 9.45875 4.40582 6.90875C5.63582 5.67875 7.27582 5 9.02457 5C10.7733 5 12.4146 5.67875 13.6433 6.90875L14.9996 8.2675L16.3558 6.91C17.5858 5.67875 19.2258 5 20.9758 5C22.7233 5 24.3646 5.67875 25.5933 6.90875C28.1396 9.45875 28.1396 13.6075 25.5946 16.1575L15.8846 25.8838C15.6496 26.1188 15.3321 26.25 14.9996 26.25Z" fill="#231F20"/>
<mask id="mask0_1_108" style="mask-type:alpha" maskUnits="userSpaceOnUse" x="2" y="5" width="26" height="22">
<path fill-rule="evenodd" clip-rule="evenodd" d="M9.02457 7.5C7.94457 7.5 6.93207 7.9175 6.17457 8.67625C4.60207 10.2512 4.60207 12.815 6.17582 14.3925L14.9996 23.2313L23.8246 14.3925C25.3983 12.815 25.3983 10.2512 23.8246 8.67625C22.3096 7.1575 19.6396 7.16 18.1246 8.67625L15.8846 10.92C15.4146 11.3913 14.5846 11.3913 14.1146 10.92L11.8746 8.675C11.1171 7.9175 10.1058 7.5 9.02457 7.5ZM14.9996 26.25C14.6683 26.25 14.3496 26.1187 14.1158 25.8825L4.40582 16.1575C1.86082 13.6075 1.86082 9.45875 4.40582 6.90875C5.63582 5.67875 7.27582 5 9.02457 5C10.7733 5 12.4146 5.67875 13.6433 6.90875L14.9996 8.2675L16.3558 6.91C17.5858 5.67875 19.2258 5 20.9758 5C22.7233 5 24.3646 5.67875 25.5933 6.90875C28.1396 9.45875 28.1396 13.6075 25.5946 16.1575L15.8846 25.8838C15.6496 26.1188 15.3321 26.25 14.9996 26.25Z" fill="white"/>
</mask>
<g mask="url(#mask0_1_108)">
<rect width="30" height="30" fill="black"/>
</g>
</svg>
